<svg id="图层_1" data-name="图层 1" xmlns="http://www.w3.org/2000/svg" viewBox="0 0 114 114"><defs><style>.cls-1{fill:#222;}.cls-2{fill:#f7f8f8;}.cls-3{fill:#8fc31f;}</style></defs><rect class="cls-1" width="114" height="114" rx="10"/><path class="cls-2" d="M27.72,31.77H39.78V90H27.72Zm5.37,47.65H70.58V90H33.09Z" transform="translate(0 0)"/><path class="cls-3" d="M27.71,31.78l8.18-6L78.83,84l-8.17,6ZM67,76.38,77.39,68.7a9.6,9.6,0,0,0,4.31-7.2q.28-4.23-3.23-9L65.83,35.37q-3.51-4.77-7.64-5.74a9.63,9.63,0,0,0-8.15,2L39.63,39.31l-7.8-10.57L42.06,21.2a21,21,0,0,1,11.07-4.4,19.06,19.06,0,0,1,11.09,2.83,35.77,35.77,0,0,1,10.32,9.81L86.71,45.93a35.72,35.72,0,0,1,6.17,12.39,19.58,19.58,0,0,1-.4,11.55A20.4,20.4,0,0,1,85,79.42L74.77,87Z" transform="translate(0 0)"/><polygon class="cls-2" points="33.88 42.41 40.03 31.76 27.74 31.76 33.88 42.41"/><polygon class="cls-2" points="65.4 83.02 70.59 90 72.39 77.83 65.4 83.02"/></svg>